PathFileType	4	(X/Y/Z)	TVC_4_Cal_03_0_static_RCNL2025.trc
DataRate	CameraRate	NumFrames	NumMarkers	Units	OrigDataRate	OrigDataStartFrame	OrigNumFrames
100	100	12	27	mm	100	1	228
Frame#	Time	R_Shoulder			L_Shoulder			C7			J_Notch			R_Elbow			L_Elbow			R_Wrist			L_Wrist			R_Asis			L_Asis			R_Psis			L_Psis			Sacral			Thoracic			Sternum			R_Thigh_Lateral			R_Knee_Lateral			R_Shank_Lateral			R_Ankle_Lateral			R_Heel			R_Toe			L_Thigh_Lateral			L_Knee_Lateral			L_Shank_Lateral			L_Ankle_Lateral			L_Heel			L_Toe		
		X1	Y1	Z1	X2	Y2	Z2	X3	Y3	Z3	X4	Y4	Z4	X5	Y5	Z5	X6	Y6	Z6	X7	Y7	Z7	X8	Y8	Z8	X9	Y9	Z9	X10	Y10	Z10	X11	Y11	Z11	X12	Y12	Z12	X13	Y13	Z13	X14	Y14	Z14	X15	Y15	Z15	X16	Y16	Z16	X17	Y17	Z17	X18	Y18	Z18	X19	Y19	Z19	X20	Y20	Z20	X21	Y21	Z21	X22	Y22	Z22	X23	Y23	Z23	X24	Y24	Z24	X25	Y25	Z25	X26	Y26	Z26	X27	Y27	Z27
1	0.00000000	-264.928406	1342.263306	-52.618320	-224.742188	1346.652222	-414.376282	-302.729004	1390.814575	-225.304993	-151.997253	1272.909790	-232.636383	-247.764465	1129.738281	151.585770	-208.997650	1112.826050	-615.312805	-164.113876	952.957397	273.499039	-92.221100	939.085083	-678.290039	-242.309082	883.218628	-41.994602	-253.572113	866.350952	-396.809662	-387.836548	918.474243	-165.000549	-387.624237	913.370789	-256.275635	-387.730392	915.922516	-210.638092	-374.454254	1147.043701	-230.847229	-115.817986	1080.112915	-223.929428	-263.592773	541.991821	-5.511987	-284.997681	423.539368	-46.556286	-303.332275	281.146240	22.326498	-312.331482	60.774437	-60.194580	-356.859070	51.834805	-108.952995	-179.403687	44.275063	-72.706322	-248.661392	518.251099	-418.566895	-264.300323	429.613739	-378.697388	-263.541016	316.410522	-428.044067	-293.745514	60.991848	-363.555939	-341.574066	49.743599	-319.583740	-158.339767	41.982529	-344.181763
2	0.01000000	-264.626862	1342.259277	-52.529877	-224.672241	1346.617798	-414.370636	-302.563690	1390.693237	-225.297501	-151.872833	1272.894165	-232.599106	-247.499527	1129.735596	151.520187	-208.916275	1112.811646	-615.346008	-163.990662	952.903809	273.463547	-92.355659	939.085876	-678.608398	-242.416168	883.204651	-41.889690	-253.578415	866.351257	-396.811401	-387.780518	918.405762	-164.922928	-387.541901	913.338867	-256.280853	-387.661209	915.872314	-210.601891	-374.448669	1147.037964	-230.853256	-115.850113	1080.027832	-223.951553	-263.366821	541.979736	-5.535951	-284.970734	423.484375	-46.595436	-303.368042	281.062653	22.336576	-312.093506	60.547142	-60.360191	-356.850677	51.850563	-108.964249	-179.311554	44.223022	-72.658386	-248.650482	518.229919	-418.589539	-264.292633	429.581512	-378.687927	-263.587372	316.291016	-427.994171	-293.789948	61.012722	-363.553192	-341.570679	49.781353	-319.581146	-158.336670	41.971992	-344.173157
3	0.02000000	-264.440063	1342.263672	-52.621632	-224.526535	1346.540405	-414.326630	-302.375580	1390.686646	-225.311172	-151.719101	1272.795776	-232.672455	-247.302475	1129.763184	151.498764	-208.922623	1112.778320	-615.378418	-163.893219	952.833740	273.383636	-92.433712	939.061340	-678.672119	-242.355759	883.216675	-41.831215	-253.570129	866.319702	-396.854889	-387.745087	918.445496	-164.968445	-387.533844	913.355774	-256.283813	-387.639465	915.900635	-210.626129	-374.257355	1147.014526	-230.907196	-115.754761	1079.977539	-223.932922	-263.279297	541.955872	-5.529082	-284.936462	423.505981	-46.603111	-303.329193	281.094513	22.326000	-312.099762	60.477875	-60.374889	-356.850403	51.851009	-108.964737	-179.381348	44.205585	-72.671318	-248.739090	518.216797	-418.639435	-264.330811	429.598114	-378.740448	-263.525024	316.430420	-428.076080	-293.865295	60.811691	-363.335297	-341.551300	49.697380	-319.613403	-158.313278	41.924980	-344.212250
4	0.03000000	-264.271454	1342.314209	-52.641579	-224.438370	1346.521973	-414.376678	-302.207611	1390.642456	-225.345306	-151.521698	1272.776489	-232.717606	-247.223892	1129.738647	151.538010	-208.917191	1112.719482	-615.423462	-163.747162	952.748016	273.336960	-92.465481	939.062897	-678.743164	-242.176926	883.213074	-41.937210	-253.560135	866.305420	-396.874573	-387.671387	918.454895	-165.006180	-387.447083	913.390930	-256.314545	-387.559235	915.922913	-210.660362	-374.193146	1147.036499	-230.836304	-115.677902	1079.887573	-224.048569	-263.349030	541.965149	-5.561662	-284.935211	423.523193	-46.606064	-303.285858	281.087158	22.263962	-312.080139	60.481449	-60.389885	-356.832886	51.815586	-108.985809	-179.397690	44.207191	-72.652756	-248.737930	518.228333	-418.646912	-264.339386	429.579865	-378.773834	-263.673035	316.341583	-428.013947	-293.788116	60.981915	-363.544891	-341.515930	49.722324	-319.563507	-158.318756	41.907406	-344.226105
5	0.04000000	-264.078369	1342.324463	-52.663963	-224.341812	1346.511108	-414.357117	-302.052887	1390.731567	-225.326996	-151.440414	1272.687988	-232.840210	-247.161530	1129.708374	151.518433	-208.904251	1112.733887	-615.415161	-163.661293	952.691711	273.290787	-92.348614	939.028168	-678.708252	-242.157043	883.217957	-41.941303	-253.566589	866.279053	-396.897400	-387.663025	918.442139	-165.035934	-387.357849	913.379822	-256.324951	-387.510437	915.910980	-210.680443	-374.121735	1147.123535	-230.879196	-115.630783	1079.802490	-224.080353	-263.431305	541.977417	-5.577236	-284.922485	423.542877	-46.606335	-303.266754	281.132507	22.250731	-311.988190	60.512146	-60.438011	-356.829987	51.812607	-108.987724	-179.360886	44.240002	-72.683884	-248.802551	518.200134	-418.699005	-264.338409	429.596924	-378.766632	-263.663513	316.356354	-428.096710	-293.841034	60.855747	-363.419006	-341.572815	49.721928	-319.579498	-158.323776	41.964771	-344.192627
6	0.05000000	-263.918915	1342.311401	-52.658867	-224.254700	1346.503052	-414.423798	-301.910828	1390.723022	-225.308441	-151.328873	1272.698486	-232.816284	-247.049149	1129.653687	151.446365	-208.903152	1112.720093	-615.440918	-163.581116	952.597626	273.166367	-92.396000	939.002716	-678.711090	-242.061874	883.194031	-41.899551	-253.477417	866.312561	-396.950592	-387.526611	918.445557	-164.989365	-387.384155	913.458496	-256.286774	-387.455383	915.952026	-210.638069	-373.981659	1147.112549	-230.838577	-115.549461	1079.768066	-224.271744	-263.479706	542.090088	-5.623424	-284.908691	423.505249	-46.617672	-303.261414	281.168091	22.275620	-312.066772	60.462273	-60.372616	-356.831055	51.813805	-108.986954	-179.364578	44.247681	-72.685753	-248.848434	518.259338	-418.709473	-264.379883	429.580109	-378.829529	-263.640381	316.411377	-428.112366	-293.774109	60.978745	-363.557312	-341.572876	49.779842	-319.581421	-158.316605	41.930107	-344.235565
7	0.06000000	-263.788025	1342.269653	-52.642124	-224.150909	1346.484985	-414.425476	-301.799652	1390.755981	-225.359558	-151.129181	1272.682861	-232.854034	-247.018585	1129.577393	151.415009	-208.903488	1112.686157	-615.444397	-163.613495	952.465118	273.120583	-92.435535	938.995667	-678.778748	-241.980667	883.169800	-41.949432	-253.471603	866.363586	-396.933289	-387.545837	918.490662	-164.959396	-387.350922	913.481995	-256.201843	-387.448380	915.986328	-210.580620	-373.834473	1147.105835	-230.815338	-115.565376	1079.699585	-224.236053	-263.312988	541.988403	-5.623848	-284.889587	423.504944	-46.608055	-303.177521	281.128845	22.324387	-312.081909	60.483051	-60.360760	-356.831390	51.814060	-108.986778	-179.401993	44.274250	-72.705833	-248.926346	518.226746	-418.769196	-264.441223	429.638916	-378.842560	-263.761536	316.499542	-428.110504	-293.779602	60.935253	-363.548920	-341.592621	49.756790	-319.557129	-158.312912	41.942993	-344.199768
8	0.07000000	-263.746063	1342.328735	-52.639156	-224.033127	1346.472412	-414.448120	-301.562286	1390.762817	-225.441360	-150.978851	1272.771118	-233.033249	-246.903519	1129.293701	151.315094	-208.907867	1112.688965	-615.439148	-163.563896	952.338806	273.016289	-92.866528	938.962524	-679.198700	-241.926758	883.118958	-42.041386	-253.479126	866.375305	-396.933105	-387.481415	918.501465	-164.990234	-387.273071	913.451416	-256.229645	-387.377243	915.976440	-210.609940	-373.825867	1147.103760	-230.816666	-115.542091	1079.578735	-224.444565	-263.104950	542.000366	-5.618234	-284.862030	423.518738	-46.624237	-303.202972	281.130219	22.257326	-312.085083	60.578255	-60.372662	-356.837616	51.781227	-108.981499	-179.376572	44.226337	-72.660706	-248.978027	518.248535	-418.779541	-264.416687	429.625458	-378.818085	-263.794189	316.573792	-428.059052	-293.894409	60.862072	-363.378113	-341.589478	49.789288	-319.552704	-158.316742	41.927826	-344.184662
9	0.08000000	-263.595154	1342.350098	-52.636257	-223.932434	1346.407104	-414.531342	-301.394470	1390.754883	-225.446686	-150.870911	1272.582397	-232.993607	-246.280289	1129.180176	151.005997	-208.827591	1112.631470	-615.505005	-163.495766	952.212280	272.855904	-92.939472	938.937256	-679.215790	-241.778412	883.182068	-41.960548	-253.406128	866.396973	-396.978333	-387.374847	918.498108	-164.985352	-387.233795	913.438293	-256.242065	-387.304321	915.968201	-210.613708	-373.668213	1147.128296	-230.843216	-115.432930	1079.512451	-224.424118	-263.008911	542.057739	-5.561747	-284.795074	423.532288	-46.683266	-303.167664	281.139038	22.296572	-312.099213	60.516857	-60.355556	-356.855194	51.814163	-108.959320	-179.432587	44.213776	-72.688652	-249.002960	518.229248	-418.807861	-264.457520	429.649811	-378.828888	-263.773468	316.484650	-428.162598	-293.845032	60.982243	-363.552216	-341.576477	49.747292	-319.582031	-158.302109	41.988071	-344.199219
10	0.09000000	-263.488220	1342.340698	-52.607487	-223.866745	1346.385620	-414.552002	-301.293091	1390.795532	-225.514145	-150.702087	1272.566284	-233.019424	-246.081482	1129.039429	150.906570	-208.831009	1112.642212	-615.522156	-163.468399	952.064667	272.721382	-92.983181	938.901337	-679.366394	-241.713425	883.173157	-41.987255	-253.384476	866.432861	-396.999878	-387.314514	918.551575	-165.002945	-387.556458	913.759583	-255.781128	-387.435486	916.155579	-210.392036	-373.576569	1147.117554	-230.857086	-115.381805	1079.454468	-224.481094	-263.154144	541.975769	-5.621817	-284.785980	423.548248	-46.629978	-303.103821	281.119629	22.247578	-312.113922	60.518993	-60.335793	-356.844086	51.828323	-108.975494	-179.419449	44.277008	-72.783279	-248.986511	518.240234	-418.855164	-264.446716	429.656311	-378.862122	-263.711243	316.580017	-428.304596	-293.827942	61.104115	-363.564819	-341.548676	49.692284	-319.615021	-158.315903	41.993519	-344.203857
11	0.10000000	-263.409973	1342.342773	-52.670795	-223.689865	1346.380371	-414.595123	-301.144897	1390.795288	-225.488831	-150.591980	1272.562256	-233.110977	-246.061310	1128.935059	150.792404	-208.845398	1112.678223	-615.564453	-163.521866	951.930695	272.576256	-93.044327	938.807037	-679.386444	-241.581711	883.172302	-42.057552	-253.397598	866.421387	-397.031555	-387.258179	918.568237	-164.911636	-387.178101	913.585449	-256.161285	-387.218140	916.076843	-210.536461	-373.500854	1147.172974	-230.822754	-115.299896	1079.432129	-224.586884	-263.018555	542.014893	-5.667160	-284.753174	423.552704	-46.632198	-303.109161	281.178375	22.279325	-312.053772	60.489738	-60.407673	-356.767517	51.815933	-109.015060	-179.390640	44.242161	-72.733101	-248.990524	518.231140	-418.862640	-264.465912	429.693878	-378.867554	-263.760468	316.435059	-428.301270	-293.773346	61.010620	-363.533569	-341.564636	49.774071	-319.584564	-158.314804	41.992653	-344.212585
12	0.11000000	-263.260864	1342.325684	-52.685368	-223.651215	1346.384521	-414.657043	-300.999878	1390.835205	-225.467499	-150.470871	1272.549194	-233.109467	-245.946686	1128.813232	150.689087	-208.805527	1112.526367	-615.585999	-163.531937	951.694031	272.469742	-93.104744	938.723175	-679.437408	-241.464142	883.160034	-42.045509	-253.399567	866.362549	-397.058258	-387.139465	918.553650	-164.858582	-387.010254	913.580017	-256.276703	-387.074860	916.066833	-210.567642	-373.427612	1147.167725	-230.884598	-115.116982	1079.452881	-224.612106	-262.902130	541.966980	-5.590164	-284.704102	423.521149	-46.688850	-303.042236	281.167816	22.307388	-312.084076	60.423809	-60.403503	-356.851074	51.816158	-108.955750	-179.368454	44.241737	-72.781006	-249.001648	518.217407	-418.850555	-264.495148	429.653564	-378.849884	-263.813690	316.484161	-428.187744	-293.861786	61.011166	-363.530426	-341.576752	49.748657	-319.582245	-158.320541	41.964325	-344.228577
